<?xml version="1.0" encoding="UTF-8"?>
<svg id="_レイヤー_1" data-name="レイヤー_1" xmlns="http://www.w3.org/2000/svg" width="146.2604931mm" height="45.809479mm" version="1.1" viewBox="0 0 414.5966797 129.8536432">
  <!-- Generator: Adobe Illustrator 29.0.1, SVG Export Plug-In . SVG Version: 2.1.0 Build 192)  -->
  <defs>
    <style>
      .st0 {
        fill: #d97742;
      }
    </style>
  </defs>
  <path class="st0" d="M24,124.7511041V58.1505182H0v-3.3994141h51.5v3.3994141h-24v66.6005859h-3.5Z"/>
  <path class="st0" d="M170.3984375,124.7511041V54.7511041h19.1005859c6.1328125,0,11.3496094,1.0166016,15.6494141,3.0498047,4.2998047,2.0341797,7.7998047,4.734375,10.5,8.0996094,2.7001953,3.3671875,4.6660156,7.1347656,5.9003906,11.3007812,1.2324219,4.1669922,1.8496094,8.3496094,1.8496094,12.5498047,0,4.2666016-.6171875,8.4667969-1.8496094,12.5996094-1.234375,4.1347656-3.2001953,7.8847656-5.9003906,11.25-2.7001953,3.3671875-6.2001953,6.0673828-10.5,8.1005859-4.2998047,2.0341797-9.5166016,3.0498047-15.6494141,3.0498047h-19.1005859ZM173.7988281,121.2511041h15.7001953c5.5996094,0,10.3320312-.9003906,14.1992188-2.7001953,3.8662109-1.7998047,7-4.2158203,9.4003906-7.25,2.4003906-3.0332031,4.1328125-6.4160156,5.2001953-10.1503906,1.0654297-3.7324219,1.5996094-7.5322266,1.5996094-11.3994141,0-3.8662109-.5341797-7.6660156-1.5996094-11.4003906-1.0673828-3.7324219-2.7998047-7.1152344-5.2001953-10.1494141-2.4003906-3.0332031-5.5341797-5.4658203-9.4003906-7.3007812-3.8671875-1.8320312-8.5996094-2.75-14.1992188-2.75h-15.7001953v63.1005859Z"/>
  <path class="st0" d="M265.3974609,125.8507135c-6.2666016,0-11.7666016-1.5-16.5-4.5-4.734375-3-8.4169922-7.2158203-11.0498047-12.6494141-2.6347656-5.4335938-3.9501953-11.7832031-3.9501953-19.0507812,0-7.265625,1.3154297-13.5996094,3.9501953-19,2.6328125-5.3994141,6.3154297-9.6152344,11.0498047-12.6494141,4.7333984-3.0332031,10.2333984-4.5498047,16.5-4.5498047,6.265625,0,11.765625,1.5166016,16.5,4.5498047,4.7333984,3.0341797,8.4160156,7.25,11.0498047,12.6494141,2.6328125,5.4003906,3.9501953,11.734375,3.9501953,19,0,7.2675781-1.3173828,13.6171875-3.9501953,19.0507812-2.6337891,5.4335938-6.3164062,9.6494141-11.0498047,12.6494141-4.734375,3-10.234375,4.5-16.5,4.5ZM265.3974609,122.4512995c5.4003906,0,10.2158203-1.3007812,14.4501953-3.9003906,4.2324219-2.5996094,7.5498047-6.3496094,9.9501953-11.25,2.3994141-4.9003906,3.5996094-10.7832031,3.5996094-17.6503906,0-6.8652344-1.2001953-12.7324219-3.5996094-17.5996094-2.4003906-4.8652344-5.7177734-8.5996094-9.9501953-11.2001953-4.234375-2.5996094-9.0498047-3.8994141-14.4501953-3.8994141-5.3994141,0-10.2167969,1.2998047-14.4501953,3.8994141-4.234375,2.6005859-7.5664062,6.3349609-10,11.2001953-2.4335938,4.8671875-3.6494141,10.734375-3.6494141,17.5996094,0,6.8671875,1.2158203,12.75,3.6494141,17.6503906s5.765625,8.6503906,10,11.25c4.2333984,2.5996094,9.0507812,3.9003906,14.4501953,3.9003906Z"/>
  <path class="st0" d="M311.1962891,124.7511041V54.7511041h3.4003906v30.7998047l37.2001953-30.7998047h5.3994141l-40.1992188,32.8994141,43,37.1005859h-5.2001953l-40.2001953-35v35h-3.4003906Z"/>
  <path class="st0" d="M371.4960938,124.7511041V54.7511041h41.8007812v3.3994141h-38.4003906v29h35v3.6005859h-35v30.5h39.7001953v3.5h-43.1005859Z"/>
  <g>
    <g>
      <circle class="st0" cx="93.6476321" cy="55.8464353" r="4.6588869"/>
      <circle class="st0" cx="108.6398584" cy="59.3406004" r="3.4941652"/>
      <circle class="st0" cx="118.3284951" cy="68.2781879" r="2.6206239"/>
      <circle class="st0" cx="123.4059539" cy="77.7840992" r="1.9654679"/>
      <circle class="st0" cx="124.8800548" cy="87.0788579" r="1.4741009"/>
      <circle class="st0" cx="78.6554059" cy="59.3406004" r="3.4941652"/>
      <circle class="st0" cx="68.9667691" cy="68.2781879" r="2.6206239"/>
      <circle class="st0" cx="63.8893104" cy="77.7840992" r="1.9654679"/>
      <circle class="st0" cx="62.4152094" cy="87.0788579" r="1.4741009"/>
    </g>
    <g>
      <circle class="st0" cx="140.3779741" cy="82.1548934" r="4.6588869"/>
      <circle class="st0" cx="136.8838089" cy="97.1471196" r="3.4941652"/>
      <circle class="st0" cx="127.9462215" cy="106.8357564" r="2.6206239"/>
      <circle class="st0" cx="118.4403102" cy="111.9132151" r="1.9654679"/>
      <circle class="st0" cx="109.1455514" cy="113.3873161" r="1.4741009"/>
      <circle class="st0" cx="136.8838089" cy="67.1626672" r="3.4941652"/>
      <circle class="st0" cx="127.9462215" cy="57.4740304" r="2.6206239"/>
      <circle class="st0" cx="118.4403102" cy="52.3965716" r="1.9654679"/>
      <circle class="st0" cx="109.1455514" cy="50.9224707" r="1.4741009"/>
    </g>
    <g>
      <circle class="st0" cx="113.7696861" cy="125.1947563" r="4.6588869"/>
      <circle class="st0" cx="98.7774599" cy="121.7005912" r="3.4941652"/>
      <circle class="st0" cx="89.0888231" cy="112.7630037" r="2.6206239"/>
      <circle class="st0" cx="84.0113644" cy="103.2570924" r="1.9654679"/>
      <circle class="st0" cx="82.5372634" cy="93.9623336" r="1.4741009"/>
      <circle class="st0" cx="128.7619123" cy="121.7005912" r="3.4941652"/>
      <circle class="st0" cx="138.4505491" cy="112.7630037" r="2.6206239"/>
      <circle class="st0" cx="143.5280079" cy="103.2570924" r="1.9654679"/>
      <circle class="st0" cx="145.0021088" cy="93.9623336" r="1.4741009"/>
    </g>
    <g>
      <circle class="st0" cx="66.010786" cy="97.1471196" r="4.6588869"/>
      <circle class="st0" cx="69.5049512" cy="82.1548934" r="3.4941652"/>
      <circle class="st0" cx="78.4425386" cy="72.4662566" r="2.6206239"/>
      <circle class="st0" cx="87.9484499" cy="67.3887978" r="1.9654679"/>
      <circle class="st0" cx="97.2432087" cy="65.9146969" r="1.4741009"/>
      <circle class="st0" cx="69.5049512" cy="112.1393458" r="3.4941652"/>
      <circle class="st0" cx="78.4425386" cy="121.8279826" r="2.6206239"/>
      <circle class="st0" cx="87.9484499" cy="126.9054414" r="1.9654679"/>
      <circle class="st0" cx="97.2432087" cy="128.3795423" r="1.4741009"/>
    </g>
  </g>
  <g>
    <path class="st0" d="M12.1761925.5440729h1.6757812v3.1806641h14.4257812v1.5898438h-14.4257812v3.8051758c1.1640625-.2836914,2.6982422-.6245117,4.7421875-.6245117,6.1904297,0,10.4501953,3.0668945,10.4501953,8.4335938,0,7.1279297-7.2412109,8.3203125-13.1474609,7.9511719l-.1708984-1.7036133c.5683594.0283203,1.0791016.0566406,1.9316406.0566406,3.8613281,0,6.9570312-.965332,8.234375-2.4135742,1.1640625-1.3349609,1.3916016-2.9536133,1.3916016-4.0039062,0-3.890625-3.0097656-6.3891602-7.0986328-6.7299805-2.3007812,11.784668-8.1503906,13.402832-10.9042969,13.402832-4.4023438,0-4.4023438-4.7133789-4.4023438-5.0541992,0-4.3447266,3.265625-7.3549805,7.2978516-8.8032227v-4.3164062h-6.5595703v-1.5898438h6.5595703V.5440729ZM12.2338097,11.2496393c-5.1113281,2.1865234-5.7646484,5.565918-5.7646484,7.1274414,0,1.2211914.5390625,3.4643555,2.9248047,3.4643555,2.015625,0,3.6064453-1.1923828,4.2021484-1.6469727-1.0507812-3.3505859-1.2773438-7.4111328-1.3623047-8.9448242ZM18.5658409,10.0001276c-2.4423828-.0283203-4.2880859.5395508-4.7138672.6816406.0566406,3.1518555.3125,5.3955078,1.0791016,8.2348633,1.8740234-2.2148438,3.0097656-5.90625,3.6347656-8.9165039Z"/>
    <path class="st0" d="M41.3080284.5157526c-.2841797,1.5332031-.4833984,2.7543945-.7392578,4.0039062h6.7304688v1.6186523h-7.0703125c-1.6191406,7.2128906-3.3798828,11.8696289-5.5380859,15.4760742l-1.703125-.9086914c3.2939453-5.0263672,4.7705078-11.2167969,5.5371094-14.5673828h-5.5087891v-1.6186523h5.8212891c.3408203-1.7036133.5107422-3.0385742.6240234-4.0888672l1.8466797.0849609ZM57.8343956,6.0533502c-.7382812-.0571289-1.0791016-.0854492-2.0732422-.0854492-2.2998047,0-3.2373047.1137695-4.1455078.2270508l.1982422,9.796875c2.4140625.9941406,5.0263672,2.8115234,6.6738281,4.7705078l-1.1640625,1.3916016c-1.9882812-2.4707031-4.0898438-3.6630859-5.5097656-4.4296875v1.6186523c0,1.675293,0,2.3569336-.3974609,3.2368164-1.1640625,2.4990234-4.1738281,2.5844727-5.0830078,2.5844727-4.7988281,0-6.53125-2.7260742-6.53125-4.9980469,0-1.987793,1.5058594-5.1962891,6.7871094-5.1962891,1.7890625,0,2.7832031.2553711,3.5498047.4541016l-.2841797-10.6201172c3.578125-.5678711,6.6728516-.5395508,7.9794922-.5112305v1.7607422ZM50.1957238,17.0709284c-.7382812-.2553711-1.8173828-.6245117-3.6064453-.6245117-3.5498047,0-5.0546875,1.7890625-5.0546875,3.6914062,0,3.4360352,4.1464844,3.4360352,4.7705078,3.4360352,3.6347656,0,3.890625-1.9311523,3.890625-4.3164062v-2.1865234Z"/>
    <path class="st0" d="M69.0189659.6012018c-.1142578,1.1357422-.2558594,2.3564453-.4833984,4.0605469h8.7460938v1.6186523h-9.0009766c-1.3066406,8.1210938-3.1806641,14.8798828-5.2822266,19.2246094l-1.7890625-.6533203c2.6123047-4.4584961,4.4580078-12.9204102,5.2539062-18.5712891h-4.5439453v-1.6186523h4.7138672c.0849609-.6816406.3974609-3.6064453.4541016-4.1459961l1.9316406.0854492ZM74.5843956,16.2760065c-.9658203,1.5332031-1.5615234,2.4702148-1.5615234,3.7480469,0,3.0668945,3.4638672,3.1806641,7.4960938,3.1806641,2.0449219,0,4.0039062-.1137695,5.7363281-.2270508v1.7885742c-.8798828.0288086-5.3105469.0854492-5.59375.0854492-4.3730469,0-5.7080078-.4257812-6.7021484-.8237305-1.7607422-.7382812-2.5839844-2.4702148-2.5839844-4.0039062,0-1.8457031.9375-3.265625,1.7607422-4.4863281l1.4482422.7382812ZM85.4886925,10.1988581c-.7382812-.0283203-1.5615234-.1132812-2.8398438-.1132812-4.6005859,0-7.2128906.9370117-8.2353516,1.277832l-.4824219-1.5053711c1.5048828-.5395508,4.6572266-1.675293,11.5576172-1.4194336v1.7602539Z"/>
    <path class="st0" d="M101.6986534,23.2613581c3.3515625-.3125,11.4160156-1.0791016,11.4160156-10.1660156,0-2.3852539-.7949219-9.796875-9.9960938-9.8535156-.5107422,6.0766602-1.2773438,11.6708984-3.9755859,15.9873047-1.7597656,2.8110352-3.5488281,3.3793945-4.5712891,3.3793945-2.7548828,0-4.9980469-3.3793945-4.9980469-7.9794922,0-7.2978516,5.0263672-12.9492188,13.5166016-12.9492188,8.8027344,0,11.7851562,6.0205078,11.7851562,11.2167969,0,10.6489258-9.2861328,11.699707-12.6650391,12.0117188l-.5117188-1.6469727ZM91.2211144,14.6290338c0,2.3569336.8798828,6.1904297,3.3222656,6.1904297,1.0791016,0,2.1015625-.7666016,3.2089844-2.5556641,2.6689453-4.2597656,3.3222656-10.5351562,3.6054688-14.965332-7.3828125.8237305-10.1367188,6.3041992-10.1367188,11.3305664Z"/>
    <path class="st0" d="M121.7425988,18.3770807c-.0849609.6816406-.4824219,4.6572266-3.1796875,7.6674805l-1.1933594-1.1928711c2.1865234-2.5556641,2.8964844-5.4521484,2.8964844-8.206543v-5.3955078h20.84375v8.6611328h-1.5332031v-1.5336914h-17.8339844ZM131.4545128-.0237982v2.6977539h12.2109375v1.362793h-12.2109375v3.4643555h10.6777344v1.3916016h-22.8876953v-1.3916016h10.7050781v-3.4643555h-12.2392578v-1.362793h12.2392578V-.0237982h1.5048828ZM130.0062706,17.0142877v-4.4013672h-8.2060547v4.4013672h8.2060547ZM139.5765831,17.0142877v-4.4013672h-8.1503906v4.4013672h8.1503906Z"/>
    <path class="st0" d="M171.0922081,4.0655573c-1.7324219-.1420898-2.7255859-.1992188-3.4931641-.1992188-1.5332031,0-2.1005859.1992188-3.2939453.6533203-3.5488281,1.3916016-6.0195312,3.8051758-7.5527344,5.7363281-1.8740234,2.328125-2.2441406,4.1171875-2.2441406,5.7641602,0,3.3227539,1.8173828,4.9125977,4.5439453,5.878418,2.953125,1.0219727,6.4179688,1.1923828,9.3144531,1.1923828l-.4550781,1.8457031c-7.5527344-.3120117-15.1914062-1.6186523-15.1914062-8.7177734,0-4.9692383,3.8613281-9.2001953,9.796875-12.3525391-4.3740234.0854492-12.9492188.6816406-15.6181641.9658203l-.2275391-1.8745117c.8515625,0,7.1845703-.2836914,10.4785156-.4541016,6.2470703-.2841797,7.8935547-.2841797,13.9423828-.2841797v1.8461914ZM167.0883019,12.3853815c-.1982422-.4541016-1.1074219-2.4702148-2.328125-4.1171875l1.3056641-.6816406c1.0791016,1.3061523,1.6757812,2.2714844,2.4707031,3.9755859l-1.4482422.8232422ZM170.2123253,10.8238581c-.5966797-1.3632812-1.4199219-2.6694336-2.3291016-3.8334961l1.3349609-.6816406c.7949219.9370117,1.8740234,2.4702148,2.4707031,3.7768555l-1.4765625.7382812Z"/>
    <path class="st0" d="M179.6927941,25.1353815c-1.6757812-2.4702148-2.8398438-3.8046875-4.3730469-5.3950195l1.5615234-1.2495117c1.9023438,1.7607422,3.578125,3.8334961,4.6005859,5.3100586l-1.7890625,1.3344727Z"/>
    <path class="st0" d="M227.8490441,5.9112604c-.7666016,5.7358398-3.2089844,9.0585938-8.8310547,11.5288086l-.9941406-1.3916016c5.1396484-2.0727539,6.9003906-4.7705078,7.7236328-8.4052734l-13.6865234,1.1074219v10.4785156c0,3.2939453,1.5048828,3.6347656,4.2304688,3.6347656h5.6230469c.7666016,0,2.9248047.0283203,5.5654297-.4257812l.0566406,1.7036133c-1.0791016.1704102-2.3847656.3691406-5.4238281.3691406h-5.6503906c-4.3164062,0-6.1337891-1.1928711-6.1337891-5.2817383v-10.3364258l-6.5595703.5112305-.0849609-1.675293,6.6445312-.4829102V.5157526h1.7324219v6.5878906l15.7880859-1.1923828Z"/>
    <path class="st0" d="M254.9066613,6.1666315v4.940918c0,2.6977539-.1416016,9.8540039-1.2773438,11.8701172-1.0507812,1.9023438-3.4082031,1.9023438-4.515625,1.9023438-2.4130859,0-3.5488281-.2270508-4.6279297-.4541016v-1.7324219c1.1357422.1987305,2.953125.5112305,4.9121094.5112305,2.3291016,0,2.7265625-1.1928711,2.9248047-1.8173828.625-1.8740234.7949219-8.0361328.7949219-10.3081055v-3.2939453h-10.0517578c-1.1933594,8.6040039-4.0322266,13.7724609-9.8818359,17.2368164l-1.0791016-1.3344727c3.2080078-2.0166016,8.0361328-5.6796875,9.2568359-15.9023438h-8.3769531v-1.6186523h8.5478516c.2265625-2.7543945.1982422-4.543457.1982422-5.6225586l1.8457031.0571289c-.1132812,3.0380859-.2265625,4.4013672-.3408203,5.5654297h11.6708984Z"/>
    <path class="st0" d="M275.4906456,25.3346002h-1.7890625v-14.6245117c-3.8056641,2.8681641-8.0078125,5.1396484-12.5224609,6.7016602l-.7958984-1.675293c4.0039062-1.2211914,13.7158203-5.5092773,21.0703125-15.1923828l1.7041016,1.0224609c-3.7763672,4.6567383-7.0136719,7.2124023-7.6669922,7.7236328v16.0444336Z"/>
    <path class="st0" d="M296.8412316.8848932c-.4267578,2.4990234-.7099609,3.9755859-.9941406,5.4521484h4.3447266c2.9248047,0,5.8212891.2841797,5.8212891,6.5878906,0,2.3569336-.3408203,6.84375-1.4482422,9.1723633-1.2216797,2.6123047-3.2089844,2.6977539-4.6005859,2.6977539-2.1865234,0-4.2021484-.3408203-4.9414062-.4545898l-.1132812-1.7319336c.7949219.1416016,3.1240234.5107422,4.8271484.5107422,1.9882812,0,2.7548828-.9086914,3.2089844-1.8173828.7949219-1.6469727,1.3349609-5.3100586,1.3349609-8.4335938,0-4.4296875-1.5048828-4.940918-3.5498047-4.940918h-5.2246094c-2.1582031,10.5917969-4.2880859,15.1352539-5.1396484,16.980957l-1.6474609-.8232422c2.7265625-5.3955078,4.1171875-11.5576172,5.0546875-16.1577148l-4.6855469.0283203v-1.6186523h4.9980469c.4541016-2.4418945.6816406-4.1176758.8798828-5.6791992l1.875.2270508ZM309.3353722,5.3145807c-.5966797-1.3061523-1.4765625-2.8676758-2.5556641-4.3442383l1.3632812-.5395508c.8515625.965332,2.0722656,3.0380859,2.640625,4.315918l-1.4482422.5678711ZM311.8627159,16.5880182c-.5400391-3.8901367-1.9023438-6.6162109-4.2314453-9.3706055l1.5332031-.8803711c2.9541016,3.265625,4.0322266,6.7583008,4.6289062,9.8535156l-1.9306641.3974609ZM312.7425988,4.4346979c-.7099609-1.5053711-1.5615234-2.925293-2.5273438-4.2597656l1.3916016-.5395508c1.1923828,1.4199219,2.1015625,3.2373047,2.5556641,4.2597656l-1.4199219.5395508Z"/>
    <path class="st0" d="M316.1752159,24.5108698c5.2529297-.6245117,9.0292969-1.9311523,11.6708984-3.1235352-.9941406-.5961914-3.0390625-1.987793-4.9414062-3.9472656-2.2998047,1.590332-4.1738281,2.3852539-5.4804688,2.8964844l-.8798828-1.3916016c3.0097656-1.050293,7.0986328-3.0952148,9.7675781-6.4741211l1.3916016.5678711c-.3691406.5112305-.6816406.9086914-1.4482422,1.675293h11.3876953v1.0224609c-1.8173828,2.2998047-3.5214844,3.7480469-6.6455078,5.6225586,2.5839844,1.2207031,6.0771484,2.5556641,11.3876953,3.1801758l-.7958984,1.6186523c-4.5146484-.5961914-8.2910156-1.7319336-12.2382812-3.8901367-3.890625,1.987793-8.1503906,3.0952148-12.4658203,3.8051758l-.7099609-1.5620117ZM330.23088,2.702276h12.2109375v1.4199219h-9.0869141v7.0136719c0,1.1079102-.3691406,1.5053711-1.5048828,1.5053711h-2.8681641l-.3408203-1.5336914,2.4707031.0283203c.7099609,0,.7382812-.340332.7382812-.7094727v-6.3041992h-4.7138672c-.1425781,3.3505859-.8808594,6.5595703-4.7988281,9.3994141l-1.1650391-1.0507812c3.6630859-2.5273438,4.3447266-5.3671875,4.4306641-8.3486328h-9.1162109v-1.4199219h12.1542969V.0045221h1.5898438v2.6977539ZM316.5443566,10.7384088c2.2148438-1.2207031,3.9179688-3.0097656,5.1113281-5.1962891l1.4482422.6245117c-.4833984.8520508-2.1582031,3.7202148-5.3955078,5.7646484l-1.1640625-1.1928711ZM324.7787316,16.0484674c-.3691406.2841797-.5107422.4262695-.7666016.5966797,1.7890625,1.7602539,4.1464844,3.265625,5.4521484,3.918457.625-.3120117,3.3222656-1.7319336,5.8779297-4.5151367h-10.5634766ZM336.4213097,5.7408502c1.8173828,2.3286133,3.1523438,3.6630859,5.5664062,5.2817383l-.9658203,1.2495117c-1.4482422-.9370117-4.2314453-3.3510742-5.7646484-5.6225586l1.1640625-.9086914Z"/>
    <path class="st0" d="M356.3519738,22.4097956c2.8964844.1132812,11.8134766.4257812,11.8134766-8.3486328,0-2.215332-.7958984-7.15625-6.7021484-7.15625-1.4482422,0-4.5146484.1420898-9.3427734,4.8276367l-.1132812,13.2329102h-1.6464844l.1132812-11.1884766c-1.6474609,3.3222656-3.2089844,4.9980469-4.3447266,6.21875l-1.0224609-1.6469727c3.6630859-3.6347656,5.1396484-7.4116211,5.3955078-8.0361328l.0283203-3.3222656h-4.6855469v-1.6469727h4.7138672l.0283203-4.7421875h1.6474609l-.0283203,4.7421875h1.0214844v.9370117c-.2832031.7099609-1.0791016,2.8681641-1.1074219,3.5776367,2.3007812-2.0444336,5.0830078-4.543457,9.8535156-4.543457,5.4814453,0,7.9794922,4.543457,7.9794922,8.6894531,0,7.3266602-5.59375,10.3647461-13.4316406,10.0239258l-.1699219-1.6181641Z"/>
    <path class="st0" d="M392.2416222,1.0836237v1.5336914c-.8808594.7382812-2.7548828,2.2714844-3.8623047,3.265625-3.5498047,3.2084961-3.9472656,3.5776367-5.0830078,4.5146484,1.4765625-.6245117,3.3505859-1.3911133,6.1054688-1.3911133,5.5087891,0,7.7236328,3.8618164,7.7236328,7.496582,0,1.362793-.3408203,8.5756836-10.5634766,8.5756836-3.1240234,0-4.5429688-.4824219-5.7080078-1.1923828-1.0791016-.6816406-1.9873047-1.902832-1.9873047-3.4643555,0-2.7260742,2.5839844-4.2880859,5.0830078-4.2880859,3.8046875,0,5.6787109,3.0952148,5.6787109,5.3666992,0,.9091797-.2548828,1.4482422-.5390625,2.0449219,4.3447266-.8237305,6.3037109-3.8051758,6.3037109-7.0141602,0-4.0322266-2.7255859-6.0766602-6.4453125-6.0766602-3.1806641,0-6.2480469,1.3344727-8.2070312,2.8681641-.9375.7382812-4.2597656,4.1171875-5.3388672,5.3950195l-1.5332031-1.2211914c1.3632812-1.1357422,7.0136719-6.6445312,8.1787109-7.7519531,1.1923828-1.1357422,6.5878906-6.0771484,7.6386719-7.1274414l-13.375.1416016v-1.675293h15.9306641ZM387.9535363,21.6427057c0-1.7602539-1.3066406-4.0322266-4.0605469-4.0322266-1.8740234,0-3.4365234,1.1357422-3.4365234,2.8964844,0,3.1518555,5.2822266,3.2373047,6.9003906,3.1518555.2841797-.5107422.5966797-1.050293.5966797-2.0161133Z"/>
    <path class="st0" d="M410.496505,21.1031549c0,2.2436523-1.8173828,4.0322266-4.0039062,4.0322266-2.2431641,0-4.0322266-1.7885742-4.0322266-4.0322266,0-2.2431641,1.8173828-4.0039062,4.0322266-4.0039062,2.1865234,0,4.0039062,1.7607422,4.0039062,4.0039062ZM403.7093956,21.1031549c0,1.5336914,1.2490234,2.7832031,2.7832031,2.7832031,1.5048828,0,2.7539062-1.2495117,2.7539062-2.7832031,0-1.5332031-1.2490234-2.7543945-2.7539062-2.7543945-1.5341797,0-2.7832031,1.2211914-2.7832031,2.7543945Z"/>
  </g>
</svg>